<svg width="66" height="25" viewBox="0 0 1537 1356" fill="none" xmlns="http://www.w3.org/2000/svg">
<path d="M0 1257.78C0 1241.21 13.4315 1227.78 30 1227.78H306.432C319.243 1227.78 330.641 1219.65 334.804 1207.53L742.731 20.2519C746.894 8.13564 758.291 0 771.103 0H996.544C1009.36 0 1020.75 8.13563 1024.92 20.2519L1432.84 1207.53C1437.01 1219.65 1448.4 1227.78 1461.21 1227.78H1507C1523.57 1227.78 1537 1241.21 1537 1257.78V1326C1537 1342.57 1523.57 1356 1507 1356H997.414C980.846 1356 967.414 1342.57 967.414 1326V1257.78C967.414 1241.21 980.846 1227.78 997.414 1227.78H1081.57C1101.97 1227.78 1116.42 1207.86 1110.09 1188.46L1036.38 962.889C1032.35 950.552 1020.84 942.206 1007.86 942.206H608.153C595.175 942.206 583.668 950.552 579.637 962.889L505.931 1188.46C499.594 1207.86 514.045 1227.78 534.447 1227.78H618.602C635.171 1227.78 648.602 1241.21 648.602 1257.78V1326C648.602 1342.57 635.171 1356 618.602 1356H30C13.4315 1356 0 1342.57 0 1326V1257.78ZM637.476 769.196C631.425 788.517 645.858 808.16 666.105 808.16H953.534C973.858 808.16 988.3 788.376 982.107 769.019L813.077 240.7C812.374 238.501 810.33 237.009 808.021 237.009C805.7 237.009 803.648 238.516 802.955 240.731L637.476 769.196Z" fill="white"/>
</svg>
