<svg width="1883" height="709" viewBox="0 0 1883 709" fill="none" xmlns="http://www.w3.org/2000/svg">
<path d="M820.984 674.62C820.984 662.939 830.453 653.47 842.134 653.47C853.815 653.47 863.284 644.001 863.284 632.32V264.028C863.284 252.261 855.078 242.087 843.578 239.595L840.488 238.926C829.106 236.46 820.984 226.39 820.984 214.744C820.984 202.974 829.275 192.833 840.809 190.494L940.475 170.279C955.963 167.137 970.444 178.976 970.444 194.78V632.32C970.444 644.001 979.913 653.47 991.594 653.47C1003.28 653.47 1012.74 662.939 1012.74 674.62V676.735C1012.74 689.584 1002.33 700 989.479 700H844.249C831.4 700 820.984 689.584 820.984 676.735V674.62Z" fill="white"/>
<path d="M1169.38 708.46C1129.43 708.46 1100.29 699.295 1081.96 680.965C1064.1 662.165 1055.17 636.08 1055.17 602.71C1055.17 529.86 1108.98 493.435 1216.61 493.435H1240.96C1254.77 493.435 1265.96 482.242 1265.96 468.435V453.25C1265.96 424.58 1260.56 402.96 1249.75 388.39C1238.94 373.82 1220.14 366.535 1193.35 366.535C1183.48 366.535 1175.02 367.24 1167.97 368.65C1161.65 369.913 1156.09 371.553 1151.28 373.57C1150.27 373.994 1149.64 374.993 1149.64 376.089C1149.64 377.147 1150.24 378.103 1151.15 378.642C1155.3 381.1 1159.26 385.055 1163.03 390.505C1167.73 396.615 1170.08 404.84 1170.08 415.18C1170.08 429.28 1165.62 441.265 1156.69 451.135C1147.76 460.535 1134.36 465.235 1116.5 465.235C1102.4 465.235 1090.65 460.3 1081.25 450.43C1071.85 440.56 1067.15 428.105 1067.15 413.065C1067.15 401.785 1070.44 390.74 1077.02 379.93C1083.6 368.65 1093.47 358.78 1106.63 350.32C1119.79 341.86 1136.01 335.045 1155.28 329.875C1175.02 324.705 1197.58 322.12 1222.96 322.12C1274.19 322.12 1312.02 333.165 1336.46 355.255C1360.9 376.875 1373.12 407.66 1373.12 447.61V632.32C1373.12 644.001 1382.59 653.47 1394.27 653.47C1405.95 653.47 1415.42 662.939 1415.42 674.62V679.356C1415.42 688.216 1410.79 696.635 1402.43 699.564C1397.06 701.442 1391.05 702.998 1384.4 704.23C1371.71 707.05 1358.55 708.46 1344.92 708.46C1319.07 708.46 1300.74 702.585 1289.93 690.835C1279.59 678.615 1274.42 663.575 1274.42 645.715C1274.42 644.936 1273.79 644.305 1273.01 644.305H1271.89C1270.86 644.305 1269.94 644.926 1269.53 645.869C1266.34 653.308 1262.33 660.542 1257.5 667.57C1252.8 675.09 1246.46 681.905 1238.47 688.015C1230.95 694.125 1221.55 699.06 1210.27 702.82C1198.99 706.58 1185.36 708.46 1169.38 708.46ZM1209.56 645.01C1226.95 645.01 1240.58 641.015 1250.45 633.025C1260.79 625.035 1265.96 611.17 1265.96 591.43V560.735C1265.96 546.928 1254.77 535.735 1240.96 535.735H1227.89C1205.33 535.735 1188.41 540.435 1177.13 549.835C1166.32 559.235 1160.92 572.63 1160.92 590.02V601.3C1160.92 616.34 1165.38 627.385 1174.31 634.435C1183.24 641.485 1194.99 645.01 1209.56 645.01Z" fill="white"/>
<path d="M1460.74 674.62C1460.74 662.939 1470.21 653.47 1481.89 653.47C1493.57 653.47 1503.04 644.001 1503.04 632.32V421.948C1503.04 410.181 1494.84 400.007 1483.34 397.515L1480.28 396.852C1468.88 394.382 1460.74 384.298 1460.74 372.635C1460.74 360.875 1469.01 350.734 1480.53 348.364L1578.05 328.3C1593.56 325.109 1608.09 336.955 1608.09 352.787V389.853C1608.09 390.992 1609.01 391.915 1610.15 391.915C1611.03 391.915 1611.81 391.36 1612.11 390.537C1618.77 372.322 1630.36 356.566 1646.86 343.27C1663.78 329.17 1687.05 322.12 1716.66 322.12C1761.78 322.12 1793.5 333.635 1811.83 356.665C1830.63 379.225 1840.03 413.3 1840.03 458.89V632.32C1840.03 644.001 1849.5 653.47 1861.18 653.47C1872.86 653.47 1882.33 662.939 1882.33 674.62V676.735C1882.33 689.584 1871.92 700 1859.07 700H1717.36C1704.52 700 1694.1 689.584 1694.1 676.735V672.857C1694.1 662.15 1702.78 653.47 1713.49 653.47C1724.19 653.47 1732.87 644.79 1732.87 634.083V462.415C1732.87 437.505 1728.41 419.88 1719.48 409.54C1711.02 398.73 1696.45 393.325 1675.77 393.325C1667.78 393.325 1659.79 394.5 1651.8 396.85C1643.81 398.73 1636.76 402.02 1630.65 406.72C1624.54 410.95 1619.6 416.59 1615.84 423.64C1612.08 430.22 1610.2 438.445 1610.2 448.315V634.082C1610.2 644.79 1618.88 653.47 1629.59 653.47C1640.3 653.47 1648.98 662.15 1648.98 672.857V676.735C1648.98 689.584 1638.56 700 1625.71 700H1484.01C1471.16 700 1460.74 689.584 1460.74 676.735V674.62Z" fill="white"/>
<path d="M0 658.811C0 645.004 11.1929 633.811 25 633.811H151.301C161.978 633.811 171.478 627.029 174.945 616.93L380.998 16.8806C384.466 6.78163 393.965 0 404.643 0H507.357C518.035 0 527.534 6.78164 531.002 16.8806L737.055 616.93C740.522 627.029 750.021 633.811 760.699 633.811H768C781.807 633.811 793 645.004 793 658.811V675C793 688.807 781.807 700 768 700H524.128C510.321 700 499.128 688.807 499.128 675V658.811C499.128 645.004 510.321 633.811 524.128 633.811H544.903C561.902 633.811 573.945 617.21 568.667 601.05L536.853 503.629C533.495 493.346 523.905 486.39 513.088 486.39H320.68C309.863 486.39 300.273 493.346 296.915 503.629L265.1 601.05C259.823 617.21 271.865 633.811 288.865 633.811H309.64C323.447 633.811 334.64 645.004 334.64 658.811V675C334.64 688.807 323.447 700 309.64 700H25C11.1929 700 0 688.807 0 675V658.811ZM332.765 384.725C327.726 400.826 339.753 417.192 356.624 417.192H478.929C495.864 417.192 507.899 400.708 502.741 384.578L419.499 124.254C419.136 123.119 418.082 122.35 416.89 122.35C415.693 122.35 414.635 123.127 414.277 124.27L332.765 384.725Z" fill="white"/>
</svg>
